G04*
G04 #@! TF.GenerationSoftware,Altium Limited,Altium Designer,22.4.2 (48)*
G04*
G04 Layer_Color=8421504*
%FSLAX25Y25*%
%MOIN*%
G70*
G04*
G04 #@! TF.SameCoordinates,97987FA3-2DFC-465C-9EA8-C567EA978DF9*
G04*
G04*
G04 #@! TF.FilePolarity,Positive*
G04*
G01*
G75*
%ADD16R,0.03937X0.13386*%
%ADD17R,0.42126X0.33858*%
%ADD18R,0.06102X0.04921*%
%ADD19R,0.05315X0.03937*%
%ADD20R,0.04724X0.03543*%
%ADD21R,0.03543X0.04724*%
%ADD22R,0.05756X0.04953*%
%ADD23R,0.04134X0.02362*%
%ADD24R,0.03937X0.05315*%
%ADD25R,0.04750X0.05938*%
%ADD26R,0.04953X0.05756*%
%ADD27R,0.03780X0.05472*%
%ADD28R,0.13858X0.04921*%
%ADD29R,0.03758X0.04969*%
%ADD30R,0.05333X0.05756*%
%ADD31R,0.04921X0.07677*%
%ADD32R,0.04921X0.13858*%
%ADD33R,0.10984X0.02913*%
%ADD34R,0.03937X0.05315*%
%ADD35R,0.13504X0.05000*%
%ADD36R,0.11102X0.03189*%
%ADD37R,0.04016X0.07165*%
%ADD38R,0.05151X0.02987*%
%ADD39R,0.05472X0.03780*%
D16*
X236000Y423768D02*
D03*
X246000D02*
D03*
X256000D02*
D03*
D17*
X246000Y465500D02*
D03*
D18*
X244500Y325965D02*
D03*
Y334035D02*
D03*
D19*
X262000Y261500D02*
D03*
Y269374D02*
D03*
X244000Y304874D02*
D03*
Y297000D02*
D03*
D20*
X243000Y262866D02*
D03*
Y271134D02*
D03*
X330500Y153268D02*
D03*
Y145000D02*
D03*
X514500Y230732D02*
D03*
Y239000D02*
D03*
X536500Y225366D02*
D03*
Y233634D02*
D03*
D21*
X291366Y289000D02*
D03*
X299634D02*
D03*
X269366D02*
D03*
X277634D02*
D03*
D22*
X321500Y319846D02*
D03*
Y312154D02*
D03*
X409000Y338500D02*
D03*
Y346193D02*
D03*
D23*
X315669Y294240D02*
D03*
Y286760D02*
D03*
X324331Y290500D02*
D03*
D24*
X481047Y478500D02*
D03*
X486953D02*
D03*
X453953Y340000D02*
D03*
X448047D02*
D03*
X454453Y363000D02*
D03*
X448547D02*
D03*
D25*
X451274Y477500D02*
D03*
X443000D02*
D03*
X353726Y404000D02*
D03*
X362000D02*
D03*
X353500Y377500D02*
D03*
X361774D02*
D03*
X455500Y383000D02*
D03*
X447226D02*
D03*
D26*
X524693Y420500D02*
D03*
X517000D02*
D03*
D27*
X382811Y403500D02*
D03*
X389189D02*
D03*
X446689Y446000D02*
D03*
X440311D02*
D03*
X389189Y378000D02*
D03*
X382811D02*
D03*
X412189Y384500D02*
D03*
X405811D02*
D03*
D28*
X445000Y408705D02*
D03*
Y424295D02*
D03*
D29*
X420054Y406500D02*
D03*
X413946D02*
D03*
D30*
X427842Y434500D02*
D03*
X420158D02*
D03*
D31*
X354500Y356677D02*
D03*
Y341323D02*
D03*
D32*
X350205Y213000D02*
D03*
X365795D02*
D03*
X314205Y214000D02*
D03*
X329795D02*
D03*
X313705Y187500D02*
D03*
X329295D02*
D03*
X314705Y237000D02*
D03*
X330295D02*
D03*
D33*
X534512Y201500D02*
D03*
Y196500D02*
D03*
Y191500D02*
D03*
Y186500D02*
D03*
Y181500D02*
D03*
X518488D02*
D03*
Y186500D02*
D03*
Y191500D02*
D03*
Y196500D02*
D03*
Y201500D02*
D03*
X585988Y274000D02*
D03*
Y279000D02*
D03*
Y284000D02*
D03*
Y289000D02*
D03*
Y294000D02*
D03*
X602012D02*
D03*
Y289000D02*
D03*
Y284000D02*
D03*
Y279000D02*
D03*
Y274000D02*
D03*
D34*
X351937Y275000D02*
D03*
X344063D02*
D03*
D35*
X525504Y287500D02*
D03*
X537000Y297500D02*
D03*
X525504Y307500D02*
D03*
X537000Y317500D02*
D03*
X525504Y327500D02*
D03*
D36*
X581000Y470000D02*
D03*
Y482598D02*
D03*
D37*
X595988Y455500D02*
D03*
X607012D02*
D03*
D38*
X585000Y402000D02*
D03*
Y395491D02*
D03*
X607500Y408755D02*
D03*
Y402245D02*
D03*
X581500Y431000D02*
D03*
Y424491D02*
D03*
D39*
X607000Y435689D02*
D03*
Y429311D02*
D03*
X581500Y449000D02*
D03*
Y455378D02*
D03*
X604500Y481689D02*
D03*
Y475311D02*
D03*
M02*
