G04*
G04 #@! TF.GenerationSoftware,Altium Limited,Altium Designer,22.4.2 (48)*
G04*
G04 Layer_Color=65535*
%FSLAX25Y25*%
%MOIN*%
G70*
G04*
G04 #@! TF.SameCoordinates,97987FA3-2DFC-465C-9EA8-C567EA978DF9*
G04*
G04*
G04 #@! TF.FilePolarity,Positive*
G04*
G01*
G75*
%ADD10C,0.00984*%
%ADD11C,0.00787*%
%ADD12C,0.00394*%
%ADD13C,0.01575*%
%ADD14C,0.00500*%
%ADD15C,0.01000*%
D10*
X298992Y432839D02*
G03*
X298992Y432839I-492J0D01*
G01*
X103331Y429500D02*
G03*
X103331Y429500I-492J0D01*
G01*
X102831Y215500D02*
G03*
X102831Y215500I-492J0D01*
G01*
X363492Y432839D02*
G03*
X363492Y432839I-492J0D01*
G01*
X511323Y201500D02*
G03*
X511323Y201500I-492J0D01*
G01*
X547551Y365000D02*
G03*
X547551Y365000I-492J0D01*
G01*
X526742Y280000D02*
G03*
X526742Y280000I-492J0D01*
G01*
X379992Y271559D02*
G03*
X379992Y271559I-492J0D01*
G01*
X696528Y377331D02*
G03*
X696528Y377331I-492J0D01*
G01*
X610161Y274000D02*
G03*
X610161Y274000I-492J0D01*
G01*
D11*
X698551Y195079D02*
G03*
X698551Y195079I-394J0D01*
G01*
X278823Y369000D02*
G03*
X278823Y369000I-12402J0D01*
G01*
X246138Y369500D02*
G03*
X246138Y369500I-15748J0D01*
G01*
X262622Y204500D02*
G03*
X262622Y204500I-43307J0D01*
G01*
X324500Y380189D02*
G03*
X324500Y380976I0J394D01*
G01*
D02*
G03*
X324500Y380189I0J-394D01*
G01*
X490902Y416421D02*
G03*
X490902Y416421I-12402J0D01*
G01*
X366402Y304421D02*
G03*
X366402Y304421I-12402J0D01*
G01*
X618291Y138500D02*
G03*
X618291Y138500I-394J0D01*
G01*
X286000Y435398D02*
Y484610D01*
X286001Y484609D02*
X335999D01*
Y435398D02*
Y484609D01*
X286000Y435398D02*
X335999D01*
X105398Y392001D02*
Y442000D01*
Y392001D02*
X154609D01*
Y441999D01*
X105398Y442000D02*
X154610D01*
X225016Y441386D02*
Y447173D01*
Y441386D02*
X266984D01*
Y447173D01*
X178138Y369094D02*
Y379193D01*
Y369094D02*
X191642D01*
Y455906D01*
X178138D02*
X191642D01*
X178138Y448484D02*
Y455906D01*
X105000Y265748D02*
Y379921D01*
X155000D01*
Y265748D02*
Y379921D01*
X105000Y265748D02*
X155000D01*
X178638Y260594D02*
Y270693D01*
Y260594D02*
X192142D01*
Y347406D01*
X178638D02*
X192142D01*
X178638Y339984D02*
Y347406D01*
X127992Y252626D02*
X146496D01*
Y243374D02*
Y252626D01*
X127992Y243374D02*
X146496D01*
X127992D02*
Y252626D01*
Y248000D02*
X132618Y252626D01*
X114114Y248000D02*
X127992D01*
X146496D02*
X160374D01*
X104898Y178001D02*
Y228000D01*
Y178001D02*
X154109D01*
Y227999D01*
X104898Y228000D02*
X154110D01*
X241843Y329606D02*
Y330394D01*
X247157Y329606D02*
Y330394D01*
X259244Y264945D02*
Y265929D01*
X264756Y264945D02*
Y265929D01*
X240343Y266114D02*
Y267886D01*
X245657Y266114D02*
Y267886D01*
X246756Y300445D02*
Y301429D01*
X241244Y300445D02*
Y301429D01*
X221453Y308811D02*
Y322591D01*
X215547Y308811D02*
X221453D01*
X215547D02*
Y322591D01*
X221453D01*
X218500D02*
X221453Y319638D01*
X218500Y322591D02*
Y330661D01*
Y300740D02*
Y308811D01*
X294614Y291657D02*
X296386D01*
X294614Y286343D02*
X296386D01*
X288752Y340921D02*
Y359386D01*
Y340921D02*
X330248D01*
Y353500D01*
X317047Y309677D02*
Y322323D01*
X325953Y309677D02*
Y322323D01*
X319114Y296209D02*
X320886D01*
Y284791D02*
Y296209D01*
X319114Y284791D02*
X320886D01*
X319114D02*
Y296209D01*
X313602Y296406D02*
X317736D01*
X272614Y291657D02*
X274386D01*
X272614Y286343D02*
X274386D01*
X446851Y475039D02*
X447423D01*
X446851Y479961D02*
X447423D01*
X350500Y435398D02*
X400499D01*
Y484609D01*
X350501D02*
X400499D01*
X350500Y435398D02*
Y484610D01*
X357577Y406461D02*
X358149D01*
X357577Y401539D02*
X358149D01*
X505220Y479000D02*
X536874D01*
X508874Y439000D02*
X536874D01*
X514523Y424953D02*
X527170D01*
X514523Y416047D02*
X527170D01*
X439094Y416500D02*
X450906D01*
X412067Y410732D02*
X421933D01*
X412067Y402268D02*
X421933D01*
X357351Y379961D02*
X357923D01*
X357351Y375039D02*
X357923D01*
X451077Y380539D02*
X451649D01*
X451077Y385461D02*
X451649D01*
X417492Y438953D02*
X430508D01*
X417492Y430047D02*
X430508D01*
X413453Y336023D02*
Y348670D01*
X404547Y336023D02*
Y348670D01*
X360799Y340142D02*
Y357858D01*
X348201Y340142D02*
Y357858D01*
X358000Y207094D02*
Y218906D01*
X322000Y208094D02*
Y219906D01*
X321500Y181594D02*
Y193406D01*
X333157Y148248D02*
Y150020D01*
X327843Y148248D02*
Y150020D01*
X375252Y147016D02*
Y157016D01*
X406748D01*
Y147016D02*
Y157016D01*
X375252Y147016D02*
X406748D01*
X287252D02*
Y157016D01*
X318748D01*
Y147016D02*
Y157016D01*
X287252Y147016D02*
X318748D01*
X427374Y121752D02*
X489079D01*
X427374Y331248D02*
X485374D01*
X525159Y204000D02*
X527841D01*
X525159Y179000D02*
X527841D01*
X347508Y272244D02*
X348492D01*
X347508Y277756D02*
X348492D01*
X534500Y350000D02*
X544500D01*
X534500D02*
Y370000D01*
X544500D01*
Y350000D02*
Y370000D01*
X526252Y331575D02*
Y332500D01*
X536252Y321575D02*
Y332500D01*
X526252D02*
X536252D01*
X526252Y282500D02*
X536252D01*
Y293425D01*
Y301575D02*
Y313425D01*
X526252Y291575D02*
Y303425D01*
Y311575D02*
Y323425D01*
Y282500D02*
Y283425D01*
X394500Y239000D02*
Y269000D01*
X374500D02*
X394500D01*
X374500Y239000D02*
Y269000D01*
Y239000D02*
X394500D01*
X511843Y233980D02*
Y235752D01*
X517157Y233980D02*
Y235752D01*
X533843Y228614D02*
Y230386D01*
X539157Y228614D02*
Y230386D01*
X368248Y123000D02*
Y133000D01*
X326752Y123000D02*
X368248D01*
X326752D02*
Y133000D01*
X368248D01*
X290358Y205602D02*
Y222335D01*
X297642D01*
Y205602D02*
Y222335D01*
X290358Y205602D02*
X297642D01*
X290358Y209244D02*
X294000Y205602D01*
Y194579D02*
Y205602D01*
Y222335D02*
Y233358D01*
X500752Y145516D02*
Y155516D01*
X532248D01*
Y145516D02*
Y155516D01*
X500752Y145516D02*
X532248D01*
X322500Y231094D02*
Y242906D01*
X576472Y476299D02*
X585528D01*
X601500Y452744D02*
Y458256D01*
X582244Y398745D02*
X587756D01*
X604744Y405500D02*
X610256D01*
X578744Y427745D02*
X584256D01*
X623004Y376346D02*
Y394654D01*
X685996Y376346D02*
Y394654D01*
X636783Y493079D02*
X672217D01*
Y394654D02*
Y493079D01*
X636783Y394654D02*
Y493079D01*
X623004Y394654D02*
X636783D01*
X672217D02*
X685996D01*
X623004Y352921D02*
X685996D01*
Y354398D01*
X623004Y352921D02*
Y354398D01*
X592659Y271500D02*
X595341D01*
X592659Y296500D02*
X595341D01*
D12*
X235764Y414890D02*
G03*
X235764Y415283I0J197D01*
G01*
D02*
G03*
X235764Y414890I0J-197D01*
G01*
X176201Y442500D02*
G03*
X176594Y442500I197J0D01*
G01*
D02*
G03*
X176201Y442500I-197J0D01*
G01*
X176701Y334000D02*
G03*
X177094Y334000I197J0D01*
G01*
D02*
G03*
X176701Y334000I-197J0D01*
G01*
X287098Y384598D02*
Y409402D01*
X331902D01*
Y384598D02*
Y409402D01*
X287098Y384598D02*
X331902D01*
D13*
X147212Y261035D02*
G03*
X147212Y261035I-495J0D01*
G01*
D14*
X620402Y124213D02*
X695598D01*
X620402D02*
Y325787D01*
X695598D01*
Y124213D02*
Y325787D01*
X583705Y132319D02*
Y134780D01*
Y232220D02*
Y234681D01*
X608902Y132319D02*
Y134780D01*
Y232220D02*
Y234681D01*
X583705Y132319D02*
X608902D01*
X583705Y234681D02*
X608902D01*
D15*
X620500Y335498D02*
Y329500D01*
X623499D01*
X624499Y330500D01*
Y334498D01*
X623499Y335498D01*
X620500D01*
X630497Y334498D02*
X629497Y335498D01*
X627498D01*
X626498Y334498D01*
Y333499D01*
X627498Y332499D01*
X629497D01*
X630497Y331499D01*
Y330500D01*
X629497Y329500D01*
X627498D01*
X626498Y330500D01*
X578600Y244798D02*
X580599D01*
X579600D01*
Y238800D01*
X578600D01*
X580599D01*
X587597Y243798D02*
X586597Y244798D01*
X584598D01*
X583598Y243798D01*
Y239800D01*
X584598Y238800D01*
X586597D01*
X587597Y239800D01*
X592595Y238800D02*
Y244798D01*
X589596Y241799D01*
X593595D01*
X313500Y306498D02*
X317499D01*
X315499D01*
Y300500D01*
X323497Y306498D02*
X319498D01*
Y303499D01*
X321497Y304499D01*
X322497D01*
X323497Y303499D01*
Y301500D01*
X322497Y300500D01*
X320498D01*
X319498Y301500D01*
X269400Y333798D02*
X273399D01*
X271399D01*
Y327800D01*
X278397D02*
Y333798D01*
X275398Y330799D01*
X279397D01*
X288700Y369498D02*
X292699D01*
X290699D01*
Y363500D01*
X294698Y368498D02*
X295698Y369498D01*
X297697D01*
X298697Y368498D01*
Y367499D01*
X297697Y366499D01*
X296697D01*
X297697D01*
X298697Y365499D01*
Y364500D01*
X297697Y363500D01*
X295698D01*
X294698Y364500D01*
X289400Y283698D02*
X293399D01*
X291399D01*
Y277700D01*
X299397D02*
X295398D01*
X299397Y281699D01*
Y282698D01*
X298397Y283698D01*
X296398D01*
X295398Y282698D01*
X205400Y291098D02*
X209399D01*
X207399D01*
Y285100D01*
X211398D02*
X213397D01*
X212398D01*
Y291098D01*
X211398Y290098D01*
X105600Y383500D02*
Y389498D01*
X108599D01*
X109599Y388498D01*
Y386499D01*
X108599Y385499D01*
X105600D01*
X107599D02*
X109599Y383500D01*
X115597Y389498D02*
X111598D01*
Y383500D01*
X115597D01*
X111598Y386499D02*
X113597D01*
X117596Y383500D02*
X119596D01*
X118596D01*
Y389498D01*
X117596Y388498D01*
X582500Y407300D02*
Y413298D01*
X585499D01*
X586499Y412298D01*
Y410299D01*
X585499Y409299D01*
X582500D01*
X584499D02*
X586499Y407300D01*
X592497D02*
X588498D01*
X592497Y411299D01*
Y412298D01*
X591497Y413298D01*
X589498D01*
X588498Y412298D01*
X598495Y413298D02*
X594496D01*
Y410299D01*
X596495Y411299D01*
X597495D01*
X598495Y410299D01*
Y408300D01*
X597495Y407300D01*
X595496D01*
X594496Y408300D01*
X605000Y414000D02*
Y419998D01*
X607999D01*
X608999Y418998D01*
Y416999D01*
X607999Y415999D01*
X605000D01*
X606999D02*
X608999Y414000D01*
X614997D02*
X610998D01*
X614997Y417999D01*
Y418998D01*
X613997Y419998D01*
X611998D01*
X610998Y418998D01*
X619995Y414000D02*
Y419998D01*
X616996Y416999D01*
X620995D01*
X579000Y436300D02*
Y442298D01*
X581999D01*
X582999Y441298D01*
Y439299D01*
X581999Y438299D01*
X579000D01*
X580999D02*
X582999Y436300D01*
X588997D02*
X584998D01*
X588997Y440299D01*
Y441298D01*
X587997Y442298D01*
X585998D01*
X584998Y441298D01*
X590996D02*
X591996Y442298D01*
X593995D01*
X594995Y441298D01*
Y440299D01*
X593995Y439299D01*
X592996D01*
X593995D01*
X594995Y438299D01*
Y437300D01*
X593995Y436300D01*
X591996D01*
X590996Y437300D01*
X534100Y239200D02*
Y245198D01*
X537099D01*
X538099Y244198D01*
Y242199D01*
X537099Y241199D01*
X534100D01*
X536099D02*
X538099Y239200D01*
X544097D02*
X540098D01*
X544097Y243199D01*
Y244198D01*
X543097Y245198D01*
X541098D01*
X540098Y244198D01*
X550095Y239200D02*
X546096D01*
X550095Y243199D01*
Y244198D01*
X549095Y245198D01*
X547096D01*
X546096Y244198D01*
X512100Y244600D02*
Y250598D01*
X515099D01*
X516099Y249598D01*
Y247599D01*
X515099Y246599D01*
X512100D01*
X514099D02*
X516099Y244600D01*
X522097D02*
X518098D01*
X522097Y248599D01*
Y249598D01*
X521097Y250598D01*
X519098D01*
X518098Y249598D01*
X524096Y244600D02*
X526095D01*
X525096D01*
Y250598D01*
X524096Y249598D01*
X267800Y295400D02*
Y301398D01*
X270799D01*
X271799Y300398D01*
Y298399D01*
X270799Y297399D01*
X267800D01*
X269799D02*
X271799Y295400D01*
X277797D02*
X273798D01*
X277797Y299399D01*
Y300398D01*
X276797Y301398D01*
X274798D01*
X273798Y300398D01*
X279796D02*
X280796Y301398D01*
X282795D01*
X283795Y300398D01*
Y296400D01*
X282795Y295400D01*
X280796D01*
X279796Y296400D01*
Y300398D01*
X342300Y281500D02*
Y287498D01*
X345299D01*
X346299Y286498D01*
Y284499D01*
X345299Y283499D01*
X342300D01*
X344299D02*
X346299Y281500D01*
X348298D02*
X350297D01*
X349298D01*
Y287498D01*
X348298Y286498D01*
X353296Y282500D02*
X354296Y281500D01*
X356295D01*
X357295Y282500D01*
Y286498D01*
X356295Y287498D01*
X354296D01*
X353296Y286498D01*
Y285499D01*
X354296Y284499D01*
X357295D01*
X317300Y327700D02*
Y333698D01*
X320299D01*
X321299Y332698D01*
Y330699D01*
X320299Y329699D01*
X317300D01*
X319299D02*
X321299Y327700D01*
X323298D02*
X325297D01*
X324298D01*
Y333698D01*
X323298Y332698D01*
X328296D02*
X329296Y333698D01*
X331295D01*
X332295Y332698D01*
Y331699D01*
X331295Y330699D01*
X332295Y329699D01*
Y328700D01*
X331295Y327700D01*
X329296D01*
X328296Y328700D01*
Y329699D01*
X329296Y330699D01*
X328296Y331699D01*
Y332698D01*
X329296Y330699D02*
X331295D01*
X289800Y295400D02*
Y301398D01*
X292799D01*
X293799Y300398D01*
Y298399D01*
X292799Y297399D01*
X289800D01*
X291799D02*
X293799Y295400D01*
X295798D02*
X297797D01*
X296798D01*
Y301398D01*
X295798Y300398D01*
X300796Y301398D02*
X304795D01*
Y300398D01*
X300796Y296400D01*
Y295400D01*
X328100Y158800D02*
Y164798D01*
X331099D01*
X332099Y163798D01*
Y161799D01*
X331099Y160799D01*
X328100D01*
X330099D02*
X332099Y158800D01*
X334098D02*
X336097D01*
X335098D01*
Y164798D01*
X334098Y163798D01*
X343095Y164798D02*
X341096Y163798D01*
X339096Y161799D01*
Y159800D01*
X340096Y158800D01*
X342095D01*
X343095Y159800D01*
Y160799D01*
X342095Y161799D01*
X339096D01*
X404800Y354000D02*
Y359998D01*
X407799D01*
X408799Y358998D01*
Y356999D01*
X407799Y355999D01*
X404800D01*
X406799D02*
X408799Y354000D01*
X410798D02*
X412797D01*
X411798D01*
Y359998D01*
X410798Y358998D01*
X419795Y359998D02*
X415796D01*
Y356999D01*
X417796Y357999D01*
X418795D01*
X419795Y356999D01*
Y355000D01*
X418795Y354000D01*
X416796D01*
X415796Y355000D01*
X443500Y391300D02*
Y397298D01*
X446499D01*
X447499Y396298D01*
Y394299D01*
X446499Y393299D01*
X443500D01*
X445499D02*
X447499Y391300D01*
X449498D02*
X451497D01*
X450498D01*
Y397298D01*
X449498Y396298D01*
X457495Y391300D02*
Y397298D01*
X454496Y394299D01*
X458495D01*
X349800Y385800D02*
Y391798D01*
X352799D01*
X353799Y390798D01*
Y388799D01*
X352799Y387799D01*
X349800D01*
X351799D02*
X353799Y385800D01*
X355798D02*
X357797D01*
X356798D01*
Y391798D01*
X355798Y390798D01*
X360796D02*
X361796Y391798D01*
X363795D01*
X364795Y390798D01*
Y389799D01*
X363795Y388799D01*
X362796D01*
X363795D01*
X364795Y387799D01*
Y386800D01*
X363795Y385800D01*
X361796D01*
X360796Y386800D01*
X446600Y346400D02*
Y352398D01*
X449599D01*
X450599Y351398D01*
Y349399D01*
X449599Y348399D01*
X446600D01*
X448599D02*
X450599Y346400D01*
X452598D02*
X454597D01*
X453598D01*
Y352398D01*
X452598Y351398D01*
X461595Y346400D02*
X457596D01*
X461595Y350399D01*
Y351398D01*
X460596Y352398D01*
X458596D01*
X457596Y351398D01*
X447100Y369400D02*
Y375398D01*
X450099D01*
X451099Y374398D01*
Y372399D01*
X450099Y371399D01*
X447100D01*
X449099D02*
X451099Y369400D01*
X453098D02*
X455097D01*
X454098D01*
Y375398D01*
X453098Y374398D01*
X458096Y369400D02*
X460096D01*
X459096D01*
Y375398D01*
X458096Y374398D01*
X240600Y276700D02*
Y282698D01*
X243599D01*
X244599Y281698D01*
Y279699D01*
X243599Y278699D01*
X240600D01*
X242599D02*
X244599Y276700D01*
X246598D02*
X248597D01*
X247598D01*
Y282698D01*
X246598Y281698D01*
X251596D02*
X252596Y282698D01*
X254595D01*
X255595Y281698D01*
Y277700D01*
X254595Y276700D01*
X252596D01*
X251596Y277700D01*
Y281698D01*
X416100Y442700D02*
Y448698D01*
X419099D01*
X420099Y447698D01*
Y445699D01*
X419099Y444699D01*
X416100D01*
X418099D02*
X420099Y442700D01*
X422098Y443700D02*
X423098Y442700D01*
X425097D01*
X426097Y443700D01*
Y447698D01*
X425097Y448698D01*
X423098D01*
X422098Y447698D01*
Y446699D01*
X423098Y445699D01*
X426097D01*
X513200Y428700D02*
Y434698D01*
X516199D01*
X517199Y433698D01*
Y431699D01*
X516199Y430699D01*
X513200D01*
X515199D02*
X517199Y428700D01*
X519198Y433698D02*
X520198Y434698D01*
X522197D01*
X523197Y433698D01*
Y432699D01*
X522197Y431699D01*
X523197Y430699D01*
Y429700D01*
X522197Y428700D01*
X520198D01*
X519198Y429700D01*
Y430699D01*
X520198Y431699D01*
X519198Y432699D01*
Y433698D01*
X520198Y431699D02*
X522197D01*
X259500Y275100D02*
Y281098D01*
X262499D01*
X263499Y280098D01*
Y278099D01*
X262499Y277099D01*
X259500D01*
X261499D02*
X263499Y275100D01*
X265498Y281098D02*
X269497D01*
Y280098D01*
X265498Y276100D01*
Y275100D01*
X241500Y310600D02*
Y316598D01*
X244499D01*
X245499Y315598D01*
Y313599D01*
X244499Y312599D01*
X241500D01*
X243499D02*
X245499Y310600D01*
X251497Y316598D02*
X249497Y315598D01*
X247498Y313599D01*
Y311600D01*
X248498Y310600D01*
X250497D01*
X251497Y311600D01*
Y312599D01*
X250497Y313599D01*
X247498D01*
X439300Y485800D02*
Y491798D01*
X442299D01*
X443299Y490798D01*
Y488799D01*
X442299Y487799D01*
X439300D01*
X441299D02*
X443299Y485800D01*
X449297Y491798D02*
X445298D01*
Y488799D01*
X447297Y489799D01*
X448297D01*
X449297Y488799D01*
Y486800D01*
X448297Y485800D01*
X446298D01*
X445298Y486800D01*
X350000Y412300D02*
Y418298D01*
X352999D01*
X353999Y417298D01*
Y415299D01*
X352999Y414299D01*
X350000D01*
X351999D02*
X353999Y412300D01*
X358997D02*
Y418298D01*
X355998Y415299D01*
X359997D01*
X240300Y341600D02*
Y347598D01*
X243299D01*
X244299Y346598D01*
Y344599D01*
X243299Y343599D01*
X240300D01*
X242299D02*
X244299Y341600D01*
X246298Y346598D02*
X247298Y347598D01*
X249297D01*
X250297Y346598D01*
Y345599D01*
X249297Y344599D01*
X248297D01*
X249297D01*
X250297Y343599D01*
Y342600D01*
X249297Y341600D01*
X247298D01*
X246298Y342600D01*
X412300Y414100D02*
Y420098D01*
X415299D01*
X416299Y419098D01*
Y417099D01*
X415299Y416099D01*
X412300D01*
X414299D02*
X416299Y414100D01*
X422297D02*
X418298D01*
X422297Y418099D01*
Y419098D01*
X421297Y420098D01*
X419298D01*
X418298Y419098D01*
X479600Y484900D02*
Y490898D01*
X482599D01*
X483599Y489898D01*
Y487899D01*
X482599Y486899D01*
X479600D01*
X481599D02*
X483599Y484900D01*
X485598D02*
X487597D01*
X486598D01*
Y490898D01*
X485598Y489898D01*
X284000Y422498D02*
Y416500D01*
X287999D01*
X293997D02*
X289998D01*
X293997Y420499D01*
Y421498D01*
X292997Y422498D01*
X290998D01*
X289998Y421498D01*
X347700Y370598D02*
Y364600D01*
X351699D01*
X353698D02*
X355697D01*
X354698D01*
Y370598D01*
X353698Y369598D01*
X581000Y305998D02*
Y300000D01*
Y301999D01*
X584999Y305998D01*
X582000Y302999D01*
X584999Y300000D01*
X586998D02*
X588997D01*
X587998D01*
Y305998D01*
X586998Y304998D01*
X591996D02*
X592996Y305998D01*
X594995D01*
X595995Y304998D01*
Y303999D01*
X594995Y302999D01*
X593996D01*
X594995D01*
X595995Y301999D01*
Y301000D01*
X594995Y300000D01*
X592996D01*
X591996Y301000D01*
X510800Y213498D02*
Y207500D01*
Y209499D01*
X514799Y213498D01*
X511800Y210499D01*
X514799Y207500D01*
X516798D02*
X518797D01*
X517798D01*
Y213498D01*
X516798Y212498D01*
X525795Y207500D02*
X521796D01*
X525795Y211499D01*
Y212498D01*
X524795Y213498D01*
X522796D01*
X521796Y212498D01*
X375000Y281498D02*
Y275500D01*
Y277499D01*
X378999Y281498D01*
X376000Y278499D01*
X378999Y275500D01*
X380998D02*
X382997D01*
X381998D01*
Y281498D01*
X380998Y280498D01*
X385996Y275500D02*
X387996D01*
X386996D01*
Y281498D01*
X385996Y280498D01*
X375300Y175598D02*
Y169600D01*
Y171599D01*
X379299Y175598D01*
X376300Y172599D01*
X379299Y169600D01*
X381298D02*
X383297D01*
X382298D01*
Y175598D01*
X381298Y174598D01*
X386296D02*
X387296Y175598D01*
X389296D01*
X390295Y174598D01*
Y170600D01*
X389296Y169600D01*
X387296D01*
X386296Y170600D01*
Y174598D01*
X519200Y342498D02*
Y336500D01*
Y338499D01*
X523199Y342498D01*
X520200Y339499D01*
X523199Y336500D01*
X525198Y337500D02*
X526198Y336500D01*
X528197D01*
X529197Y337500D01*
Y341498D01*
X528197Y342498D01*
X526198D01*
X525198Y341498D01*
Y340499D01*
X526198Y339499D01*
X529197D01*
X284300Y494098D02*
Y488100D01*
Y490099D01*
X288299Y494098D01*
X285300Y491099D01*
X288299Y488100D01*
X290298Y493098D02*
X291298Y494098D01*
X293297D01*
X294297Y493098D01*
Y492099D01*
X293297Y491099D01*
X294297Y490099D01*
Y489100D01*
X293297Y488100D01*
X291298D01*
X290298Y489100D01*
Y490099D01*
X291298Y491099D01*
X290298Y492099D01*
Y493098D01*
X291298Y491099D02*
X293297D01*
X287300Y175598D02*
Y169600D01*
Y171599D01*
X291299Y175598D01*
X288300Y172599D01*
X291299Y169600D01*
X293298Y175598D02*
X297297D01*
Y174598D01*
X293298Y170600D01*
Y169600D01*
X326800Y142998D02*
Y137000D01*
Y138999D01*
X330799Y142998D01*
X327800Y139999D01*
X330799Y137000D01*
X336797Y142998D02*
X334797Y141998D01*
X332798Y139999D01*
Y138000D01*
X333798Y137000D01*
X335797D01*
X336797Y138000D01*
Y138999D01*
X335797Y139999D01*
X332798D01*
X535000Y379498D02*
Y373500D01*
Y375499D01*
X538999Y379498D01*
X536000Y376499D01*
X538999Y373500D01*
X544997Y379498D02*
X540998D01*
Y376499D01*
X542997Y377499D01*
X543997D01*
X544997Y376499D01*
Y374500D01*
X543997Y373500D01*
X541998D01*
X540998Y374500D01*
X500800Y174098D02*
Y168100D01*
Y170099D01*
X504799Y174098D01*
X501800Y171099D01*
X504799Y168100D01*
X509797D02*
Y174098D01*
X506798Y171099D01*
X510797D01*
X348800Y494098D02*
Y488100D01*
Y490099D01*
X352799Y494098D01*
X349800Y491099D01*
X352799Y488100D01*
X354798Y493098D02*
X355798Y494098D01*
X357797D01*
X358797Y493098D01*
Y492099D01*
X357797Y491099D01*
X356797D01*
X357797D01*
X358797Y490099D01*
Y489100D01*
X357797Y488100D01*
X355798D01*
X354798Y489100D01*
X102400Y239698D02*
Y233700D01*
Y235699D01*
X106399Y239698D01*
X103400Y236699D01*
X106399Y233700D01*
X112397D02*
X108398D01*
X112397Y237699D01*
Y238698D01*
X111397Y239698D01*
X109398D01*
X108398Y238698D01*
X102900Y453698D02*
Y447700D01*
Y449699D01*
X106899Y453698D01*
X103900Y450699D01*
X106899Y447700D01*
X108898D02*
X110897D01*
X109898D01*
Y453698D01*
X108898Y452698D01*
X422700Y341298D02*
X424699D01*
X423700D01*
Y335300D01*
X422700D01*
X424699D01*
X431697Y340298D02*
X430697Y341298D01*
X428698D01*
X427698Y340298D01*
Y336300D01*
X428698Y335300D01*
X430697D01*
X431697Y336300D01*
X433696Y340298D02*
X434696Y341298D01*
X436695D01*
X437695Y340298D01*
Y339299D01*
X436695Y338299D01*
X435696D01*
X436695D01*
X437695Y337299D01*
Y336300D01*
X436695Y335300D01*
X434696D01*
X433696Y336300D01*
X504300Y489098D02*
X506299D01*
X505300D01*
Y483100D01*
X504300D01*
X506299D01*
X513297Y488098D02*
X512297Y489098D01*
X510298D01*
X509298Y488098D01*
Y484100D01*
X510298Y483100D01*
X512297D01*
X513297Y484100D01*
X519295Y483100D02*
X515296D01*
X519295Y487099D01*
Y488098D01*
X518295Y489098D01*
X516296D01*
X515296Y488098D01*
X221800Y495598D02*
X223799D01*
X222800D01*
Y489600D01*
X221800D01*
X223799D01*
X230797Y494598D02*
X229797Y495598D01*
X227798D01*
X226798Y494598D01*
Y490600D01*
X227798Y489600D01*
X229797D01*
X230797Y490600D01*
X232796Y489600D02*
X234796D01*
X233796D01*
Y495598D01*
X232796Y494598D01*
X621299Y502898D02*
X617300D01*
Y496900D01*
X621299D01*
X617300Y499899D02*
X619299D01*
X623298Y496900D02*
Y502898D01*
X627297Y496900D01*
Y502898D01*
X633295Y501898D02*
X632295Y502898D01*
X630296D01*
X629296Y501898D01*
Y497900D01*
X630296Y496900D01*
X632295D01*
X633295Y497900D01*
X635294Y496900D02*
X637293D01*
X636294D01*
Y502898D01*
X635294Y501898D01*
X289900Y249298D02*
Y243300D01*
X292899D01*
X293899Y244300D01*
Y248298D01*
X292899Y249298D01*
X289900D01*
X295898Y248298D02*
X296898Y249298D01*
X298897D01*
X299897Y248298D01*
Y247299D01*
X298897Y246299D01*
X297897D01*
X298897D01*
X299897Y245299D01*
Y244300D01*
X298897Y243300D01*
X296898D01*
X295898Y244300D01*
X215100Y346798D02*
Y340800D01*
X218099D01*
X219099Y341800D01*
Y345798D01*
X218099Y346798D01*
X215100D01*
X225097Y340800D02*
X221098D01*
X225097Y344799D01*
Y345798D01*
X224097Y346798D01*
X222098D01*
X221098Y345798D01*
X106200Y263098D02*
Y257100D01*
X109199D01*
X110199Y258100D01*
Y262098D01*
X109199Y263098D01*
X106200D01*
X112198Y257100D02*
X114197D01*
X113198D01*
Y263098D01*
X112198Y262098D01*
X608599Y446298D02*
X607599Y447298D01*
X605600D01*
X604600Y446298D01*
Y442300D01*
X605600Y441300D01*
X607599D01*
X608599Y442300D01*
X610598Y441300D02*
X612597D01*
X611598D01*
Y447298D01*
X610598Y446298D01*
X615596Y442300D02*
X616596Y441300D01*
X618596D01*
X619595Y442300D01*
Y446298D01*
X618596Y447298D01*
X616596D01*
X615596Y446298D01*
Y445299D01*
X616596Y444299D01*
X619595D01*
X583099Y465998D02*
X582099Y466998D01*
X580100D01*
X579100Y465998D01*
Y462000D01*
X580100Y461000D01*
X582099D01*
X583099Y462000D01*
X585098Y461000D02*
X587097D01*
X586098D01*
Y466998D01*
X585098Y465998D01*
X590096D02*
X591096Y466998D01*
X593095D01*
X594095Y465998D01*
Y464999D01*
X593095Y463999D01*
X594095Y462999D01*
Y462000D01*
X593095Y461000D01*
X591096D01*
X590096Y462000D01*
Y462999D01*
X591096Y463999D01*
X590096Y464999D01*
Y465998D01*
X591096Y463999D02*
X593095D01*
X606099Y492298D02*
X605099Y493298D01*
X603100D01*
X602100Y492298D01*
Y488300D01*
X603100Y487300D01*
X605099D01*
X606099Y488300D01*
X608098Y487300D02*
X610097D01*
X609098D01*
Y493298D01*
X608098Y492298D01*
X613096Y493298D02*
X617095D01*
Y492298D01*
X613096Y488300D01*
Y487300D01*
X598299Y467798D02*
X597299Y468798D01*
X595300D01*
X594300Y467798D01*
Y463800D01*
X595300Y462800D01*
X597299D01*
X598299Y463800D01*
X600298Y462800D02*
X602297D01*
X601298D01*
Y468798D01*
X600298Y467798D01*
X609295Y468798D02*
X607296Y467798D01*
X605296Y465799D01*
Y463800D01*
X606296Y462800D01*
X608295D01*
X609295Y463800D01*
Y464799D01*
X608295Y465799D01*
X605296D01*
X579799Y492898D02*
X578799Y493898D01*
X576800D01*
X575800Y492898D01*
Y488900D01*
X576800Y487900D01*
X578799D01*
X579799Y488900D01*
X581798Y487900D02*
X583797D01*
X582798D01*
Y493898D01*
X581798Y492898D01*
X590795Y493898D02*
X586796D01*
Y490899D01*
X588796Y491899D01*
X589795D01*
X590795Y490899D01*
Y488900D01*
X589795Y487900D01*
X587796D01*
X586796Y488900D01*
X316599Y252598D02*
X315599Y253598D01*
X313600D01*
X312600Y252598D01*
Y248600D01*
X313600Y247600D01*
X315599D01*
X316599Y248600D01*
X318598Y247600D02*
X320597D01*
X319598D01*
Y253598D01*
X318598Y252598D01*
X326595Y247600D02*
Y253598D01*
X323596Y250599D01*
X327595D01*
X385199Y389398D02*
X384199Y390398D01*
X382200D01*
X381200Y389398D01*
Y385400D01*
X382200Y384400D01*
X384199D01*
X385199Y385400D01*
X387198Y384400D02*
X389197D01*
X388198D01*
Y390398D01*
X387198Y389398D01*
X392196D02*
X393196Y390398D01*
X395196D01*
X396195Y389398D01*
Y388399D01*
X395196Y387399D01*
X394196D01*
X395196D01*
X396195Y386399D01*
Y385400D01*
X395196Y384400D01*
X393196D01*
X392196Y385400D01*
X408199Y395898D02*
X407199Y396898D01*
X405200D01*
X404200Y395898D01*
Y391900D01*
X405200Y390900D01*
X407199D01*
X408199Y391900D01*
X410198Y390900D02*
X412197D01*
X411198D01*
Y396898D01*
X410198Y395898D01*
X419195Y390900D02*
X415196D01*
X419195Y394899D01*
Y395898D01*
X418195Y396898D01*
X416196D01*
X415196Y395898D01*
X352099Y228598D02*
X351099Y229598D01*
X349100D01*
X348100Y228598D01*
Y224600D01*
X349100Y223600D01*
X351099D01*
X352099Y224600D01*
X354098Y223600D02*
X356097D01*
X355098D01*
Y229598D01*
X354098Y228598D01*
X359096Y223600D02*
X361096D01*
X360096D01*
Y229598D01*
X359096Y228598D01*
X344499Y326898D02*
X343499Y327898D01*
X341500D01*
X340500Y326898D01*
Y322900D01*
X341500Y321900D01*
X343499D01*
X344499Y322900D01*
X346498Y321900D02*
X348497D01*
X347498D01*
Y327898D01*
X346498Y326898D01*
X351496D02*
X352496Y327898D01*
X354496D01*
X355495Y326898D01*
Y322900D01*
X354496Y321900D01*
X352496D01*
X351496Y322900D01*
Y326898D01*
X316099Y229598D02*
X315099Y230598D01*
X313100D01*
X312100Y229598D01*
Y225600D01*
X313100Y224600D01*
X315099D01*
X316099Y225600D01*
X318098D02*
X319098Y224600D01*
X321097D01*
X322097Y225600D01*
Y229598D01*
X321097Y230598D01*
X319098D01*
X318098Y229598D01*
Y228599D01*
X319098Y227599D01*
X322097D01*
X315599Y203098D02*
X314599Y204098D01*
X312600D01*
X311600Y203098D01*
Y199100D01*
X312600Y198100D01*
X314599D01*
X315599Y199100D01*
X317598Y203098D02*
X318598Y204098D01*
X320597D01*
X321597Y203098D01*
Y202099D01*
X320597Y201099D01*
X321597Y200099D01*
Y199100D01*
X320597Y198100D01*
X318598D01*
X317598Y199100D01*
Y200099D01*
X318598Y201099D01*
X317598Y202099D01*
Y203098D01*
X318598Y201099D02*
X320597D01*
X385199Y414898D02*
X384199Y415898D01*
X382200D01*
X381200Y414898D01*
Y410900D01*
X382200Y409900D01*
X384199D01*
X385199Y410900D01*
X387198Y415898D02*
X391197D01*
Y414898D01*
X387198Y410900D01*
Y409900D01*
X442699Y457398D02*
X441699Y458398D01*
X439700D01*
X438700Y457398D01*
Y453400D01*
X439700Y452400D01*
X441699D01*
X442699Y453400D01*
X448697Y458398D02*
X446697Y457398D01*
X444698Y455399D01*
Y453400D01*
X445698Y452400D01*
X447697D01*
X448697Y453400D01*
Y454399D01*
X447697Y455399D01*
X444698D01*
X256999Y391498D02*
X255999Y392498D01*
X254000D01*
X253000Y391498D01*
Y387500D01*
X254000Y386500D01*
X255999D01*
X256999Y387500D01*
X262997Y392498D02*
X258998D01*
Y389499D01*
X260997Y390499D01*
X261997D01*
X262997Y389499D01*
Y387500D01*
X261997Y386500D01*
X259998D01*
X258998Y387500D01*
X217599Y395298D02*
X216599Y396298D01*
X214600D01*
X213600Y395298D01*
Y391300D01*
X214600Y390300D01*
X216599D01*
X217599Y391300D01*
X222597Y390300D02*
Y396298D01*
X219598Y393299D01*
X223597D01*
X442399Y435398D02*
X441399Y436398D01*
X439400D01*
X438400Y435398D01*
Y431400D01*
X439400Y430400D01*
X441399D01*
X442399Y431400D01*
X444398Y435398D02*
X445398Y436398D01*
X447397D01*
X448397Y435398D01*
Y434399D01*
X447397Y433399D01*
X446397D01*
X447397D01*
X448397Y432399D01*
Y431400D01*
X447397Y430400D01*
X445398D01*
X444398Y431400D01*
X468999Y438898D02*
X467999Y439898D01*
X466000D01*
X465000Y438898D01*
Y434900D01*
X466000Y433900D01*
X467999D01*
X468999Y434900D01*
X474997Y433900D02*
X470998D01*
X474997Y437899D01*
Y438898D01*
X473997Y439898D01*
X471998D01*
X470998Y438898D01*
X178899Y257898D02*
X177899Y258898D01*
X175900D01*
X174900Y257898D01*
Y253900D01*
X175900Y252900D01*
X177899D01*
X178899Y253900D01*
X180898Y252900D02*
X182897D01*
X181898D01*
Y258898D01*
X180898Y257898D01*
X175000Y468998D02*
Y463000D01*
X177999D01*
X178999Y464000D01*
Y464999D01*
X177999Y465999D01*
X175000D01*
X177999D01*
X178999Y466999D01*
Y467998D01*
X177999Y468998D01*
X175000D01*
X184997Y463000D02*
X180998D01*
X184997Y466999D01*
Y467998D01*
X183997Y468998D01*
X181998D01*
X180998Y467998D01*
X175500Y360498D02*
Y354500D01*
X178499D01*
X179499Y355500D01*
Y356499D01*
X178499Y357499D01*
X175500D01*
X178499D01*
X179499Y358499D01*
Y359498D01*
X178499Y360498D01*
X175500D01*
X181498Y354500D02*
X183497D01*
X182498D01*
Y360498D01*
X181498Y359498D01*
M02*
