G04*
G04 #@! TF.GenerationSoftware,Altium Limited,Altium Designer,22.4.2 (48)*
G04*
G04 Layer_Color=16711935*
%FSLAX25Y25*%
%MOIN*%
G70*
G04*
G04 #@! TF.SameCoordinates,97987FA3-2DFC-465C-9EA8-C567EA978DF9*
G04*
G04*
G04 #@! TF.FilePolarity,Negative*
G04*
G01*
G75*
%ADD54C,0.06706*%
%ADD55R,0.07887X0.07887*%
%ADD56C,0.07887*%
%ADD57C,0.05769*%
%ADD58R,0.05769X0.05769*%
%ADD59R,0.07887X0.07887*%
%ADD60R,0.09599X0.09599*%
%ADD61C,0.09599*%
%ADD62C,0.09068*%
%ADD63R,0.07296X0.07296*%
%ADD64C,0.07296*%
%ADD65R,0.05131X0.05131*%
%ADD66C,0.05131*%
%ADD67R,0.05820X0.05820*%
%ADD68C,0.05820*%
%ADD69R,0.06706X0.06706*%
%ADD70R,0.05524X0.05524*%
%ADD71C,0.05524*%
%ADD72R,0.08359X0.08359*%
%ADD73C,0.08359*%
%ADD74C,0.08300*%
%ADD75R,0.05359X0.05359*%
%ADD76C,0.05359*%
%ADD77R,0.05131X0.05131*%
%ADD78R,0.06902X0.06902*%
%ADD79C,0.06902*%
%ADD80R,0.05461X0.05461*%
%ADD81C,0.05461*%
%ADD82R,0.06902X0.06902*%
%ADD83R,0.05328X0.05328*%
%ADD84C,0.05328*%
%ADD85R,0.05485X0.05485*%
%ADD86C,0.05485*%
%ADD87C,0.07284*%
%ADD88R,0.07284X0.07284*%
G04:AMPARAMS|DCode=89|XSize=102.36mil|YSize=185.04mil|CornerRadius=51.18mil|HoleSize=0mil|Usage=FLASHONLY|Rotation=0.000|XOffset=0mil|YOffset=0mil|HoleType=Round|Shape=RoundedRectangle|*
%AMROUNDEDRECTD89*
21,1,0.10236,0.08268,0,0,0.0*
21,1,0.00000,0.18504,0,0,0.0*
1,1,0.10236,0.00000,-0.04134*
1,1,0.10236,0.00000,-0.04134*
1,1,0.10236,0.00000,0.04134*
1,1,0.10236,0.00000,0.04134*
%
%ADD89ROUNDEDRECTD89*%
G04:AMPARAMS|DCode=90|XSize=102.36mil|YSize=185.04mil|CornerRadius=51.18mil|HoleSize=0mil|Usage=FLASHONLY|Rotation=0.000|XOffset=0mil|YOffset=0mil|HoleType=Round|Shape=RoundedRectangle|*
%AMROUNDEDRECTD90*
21,1,0.10236,0.08268,0,0,0.0*
21,1,0.00000,0.18504,0,0,0.0*
1,1,0.10236,0.00000,-0.04134*
1,1,0.10236,0.00000,-0.04134*
1,1,0.10236,0.00000,0.04134*
1,1,0.10236,0.00000,0.04134*
%
%ADD90ROUNDEDRECTD90*%
%ADD91C,0.05800*%
D54*
X212500Y273000D02*
D03*
X217500Y266500D02*
D03*
X222500Y273000D02*
D03*
X296500Y262500D02*
D03*
X301500Y269000D02*
D03*
X306500Y262500D02*
D03*
X286500Y312563D02*
D03*
X281500Y319063D02*
D03*
X276500Y312563D02*
D03*
X239000Y204500D02*
D03*
D55*
X298500Y466500D02*
D03*
X363000D02*
D03*
D56*
X323500D02*
D03*
X136500Y404500D02*
D03*
X136000Y190500D02*
D03*
X388000Y466500D02*
D03*
D57*
X628000Y225000D02*
D03*
Y215000D02*
D03*
Y205000D02*
D03*
Y235000D02*
D03*
Y245000D02*
D03*
X688000Y225000D02*
D03*
Y235000D02*
D03*
Y245000D02*
D03*
Y215000D02*
D03*
Y205000D02*
D03*
Y255000D02*
D03*
D58*
Y195000D02*
D03*
D59*
X136500Y429500D02*
D03*
X136000Y215500D02*
D03*
D60*
X182500Y442500D02*
D03*
X183000Y334000D02*
D03*
D61*
X182500Y422500D02*
D03*
Y402500D02*
D03*
Y382500D02*
D03*
X183000Y314000D02*
D03*
Y294000D02*
D03*
Y274000D02*
D03*
D62*
X144764Y275000D02*
D03*
Y335079D02*
D03*
Y354921D02*
D03*
Y374764D02*
D03*
X115236D02*
D03*
Y354921D02*
D03*
Y335079D02*
D03*
Y275000D02*
D03*
D63*
X109488Y248000D02*
D03*
D64*
X165000D02*
D03*
D65*
X271343Y369000D02*
D03*
D66*
X261500D02*
D03*
X478500Y421343D02*
D03*
X354000Y299500D02*
D03*
D67*
X223500Y369500D02*
D03*
D68*
X237280D02*
D03*
D69*
X199630Y204500D02*
D03*
D70*
X218500Y334402D02*
D03*
D71*
Y297000D02*
D03*
D72*
X319500Y353500D02*
D03*
D73*
X309500D02*
D03*
X299500D02*
D03*
D74*
X324500Y392000D02*
D03*
Y402000D02*
D03*
X294500D02*
D03*
Y392000D02*
D03*
D75*
X507500Y474000D02*
D03*
D76*
Y464000D02*
D03*
Y454000D02*
D03*
Y444000D02*
D03*
X538248D02*
D03*
Y454000D02*
D03*
Y464000D02*
D03*
Y474000D02*
D03*
D77*
X478500Y411500D02*
D03*
X354000Y309343D02*
D03*
D78*
X401000Y163000D02*
D03*
X313000D02*
D03*
X332500Y128000D02*
D03*
X526500Y161500D02*
D03*
D79*
X391000Y163000D02*
D03*
X381000D02*
D03*
X303000D02*
D03*
X293000D02*
D03*
X539500Y355000D02*
D03*
X389500Y264000D02*
D03*
X379500Y254000D02*
D03*
Y244000D02*
D03*
X389500Y254000D02*
D03*
Y244000D02*
D03*
X342500Y128000D02*
D03*
X352500D02*
D03*
X362500D02*
D03*
X516500Y161500D02*
D03*
X506500D02*
D03*
D80*
X486748Y131500D02*
D03*
D81*
Y141500D02*
D03*
Y151500D02*
D03*
Y161500D02*
D03*
Y171500D02*
D03*
Y181500D02*
D03*
Y191500D02*
D03*
Y201500D02*
D03*
Y211500D02*
D03*
Y221500D02*
D03*
Y231500D02*
D03*
Y241500D02*
D03*
Y251500D02*
D03*
Y261500D02*
D03*
Y271500D02*
D03*
Y281500D02*
D03*
Y291500D02*
D03*
Y301500D02*
D03*
Y311500D02*
D03*
Y321500D02*
D03*
X426000D02*
D03*
Y311500D02*
D03*
Y301500D02*
D03*
Y291500D02*
D03*
Y281500D02*
D03*
Y271500D02*
D03*
Y261500D02*
D03*
Y251500D02*
D03*
Y241500D02*
D03*
Y231500D02*
D03*
Y221500D02*
D03*
Y211500D02*
D03*
Y201500D02*
D03*
Y191500D02*
D03*
Y181500D02*
D03*
Y171500D02*
D03*
Y161500D02*
D03*
Y151500D02*
D03*
Y141500D02*
D03*
Y131500D02*
D03*
D82*
X539500Y365000D02*
D03*
X379500Y264000D02*
D03*
D83*
X294000Y190937D02*
D03*
D84*
Y237000D02*
D03*
D85*
X611618Y138500D02*
D03*
D86*
Y148500D02*
D03*
Y158500D02*
D03*
Y168500D02*
D03*
Y178500D02*
D03*
Y188500D02*
D03*
Y198500D02*
D03*
Y208500D02*
D03*
Y218500D02*
D03*
Y228500D02*
D03*
X580988D02*
D03*
Y218500D02*
D03*
Y208500D02*
D03*
Y198500D02*
D03*
Y188500D02*
D03*
Y178500D02*
D03*
Y168500D02*
D03*
Y158500D02*
D03*
Y148500D02*
D03*
Y138500D02*
D03*
D87*
X634815Y377331D02*
D03*
X654500D02*
D03*
D88*
X674185D02*
D03*
D89*
X686783Y365126D02*
D03*
D90*
X622217D02*
D03*
D91*
X536400Y173100D02*
D03*
X356500Y369000D02*
D03*
X365795Y286500D02*
D03*
X464500Y226300D02*
D03*
X399900Y381500D02*
D03*
X603600Y398000D02*
D03*
X571200Y385973D02*
D03*
X619500Y380000D02*
D03*
X449453Y373000D02*
D03*
X366600Y198800D02*
D03*
X525500Y260600D02*
D03*
X523100Y317500D02*
D03*
X499800Y294552D02*
D03*
X452200Y207200D02*
D03*
X510100Y191500D02*
D03*
X464500Y141500D02*
D03*
X509400Y185300D02*
D03*
X315900Y304400D02*
D03*
X535000Y142900D02*
D03*
X358300Y286500D02*
D03*
X329400Y163000D02*
D03*
X507500Y201500D02*
D03*
X460000Y375100D02*
D03*
X615900Y435616D02*
D03*
X362000Y452700D02*
D03*
X514300Y210800D02*
D03*
X252400Y269374D02*
D03*
X525600Y300352D02*
D03*
X537000Y251500D02*
D03*
M02*
