G04*
G04 #@! TF.GenerationSoftware,Altium Limited,Altium Designer,22.4.2 (48)*
G04*
G04 Layer_Color=8388736*
%FSLAX25Y25*%
%MOIN*%
G70*
G04*
G04 #@! TF.SameCoordinates,97987FA3-2DFC-465C-9EA8-C567EA978DF9*
G04*
G04*
G04 #@! TF.FilePolarity,Negative*
G04*
G01*
G75*
%ADD19R,0.05315X0.03937*%
%ADD20R,0.04724X0.03543*%
%ADD21R,0.03543X0.04724*%
%ADD22R,0.05756X0.04953*%
%ADD25R,0.04750X0.05938*%
%ADD26R,0.04953X0.05756*%
%ADD29R,0.03758X0.04969*%
%ADD30R,0.05333X0.05756*%
%ADD34R,0.03937X0.05315*%
%ADD38R,0.05151X0.02987*%
%ADD40R,0.04737X0.14186*%
%ADD41R,0.42926X0.34658*%
%ADD42R,0.06902X0.05721*%
%ADD43R,0.04934X0.03162*%
%ADD44R,0.04737X0.06115*%
%ADD45R,0.04580X0.06272*%
%ADD46R,0.14658X0.05721*%
%ADD47R,0.05721X0.08477*%
%ADD48R,0.05721X0.14658*%
%ADD49R,0.11784X0.03713*%
%ADD50R,0.14304X0.05800*%
%ADD51R,0.11902X0.03989*%
%ADD52R,0.04816X0.07965*%
%ADD53R,0.06272X0.04580*%
%ADD54C,0.06706*%
%ADD55R,0.07887X0.07887*%
%ADD56C,0.07887*%
%ADD57C,0.05769*%
%ADD58R,0.05769X0.05769*%
%ADD59R,0.07887X0.07887*%
%ADD60R,0.09599X0.09599*%
%ADD61C,0.09599*%
%ADD62C,0.09068*%
%ADD63R,0.07296X0.07296*%
%ADD64C,0.07296*%
%ADD65R,0.05131X0.05131*%
%ADD66C,0.05131*%
%ADD67R,0.05820X0.05820*%
%ADD68C,0.05820*%
%ADD69R,0.06706X0.06706*%
%ADD70R,0.05524X0.05524*%
%ADD71C,0.05524*%
%ADD72R,0.08359X0.08359*%
%ADD73C,0.08359*%
%ADD74C,0.08300*%
%ADD75R,0.05359X0.05359*%
%ADD76C,0.05359*%
%ADD77R,0.05131X0.05131*%
%ADD78R,0.06902X0.06902*%
%ADD79C,0.06902*%
%ADD80R,0.05461X0.05461*%
%ADD81C,0.05461*%
%ADD82R,0.06902X0.06902*%
%ADD83R,0.05328X0.05328*%
%ADD84C,0.05328*%
%ADD85R,0.05485X0.05485*%
%ADD86C,0.05485*%
%ADD87C,0.07284*%
%ADD88R,0.07284X0.07284*%
G04:AMPARAMS|DCode=89|XSize=102.36mil|YSize=185.04mil|CornerRadius=51.18mil|HoleSize=0mil|Usage=FLASHONLY|Rotation=0.000|XOffset=0mil|YOffset=0mil|HoleType=Round|Shape=RoundedRectangle|*
%AMROUNDEDRECTD89*
21,1,0.10236,0.08268,0,0,0.0*
21,1,0.00000,0.18504,0,0,0.0*
1,1,0.10236,0.00000,-0.04134*
1,1,0.10236,0.00000,-0.04134*
1,1,0.10236,0.00000,0.04134*
1,1,0.10236,0.00000,0.04134*
%
%ADD89ROUNDEDRECTD89*%
G04:AMPARAMS|DCode=90|XSize=102.36mil|YSize=185.04mil|CornerRadius=51.18mil|HoleSize=0mil|Usage=FLASHONLY|Rotation=0.000|XOffset=0mil|YOffset=0mil|HoleType=Round|Shape=RoundedRectangle|*
%AMROUNDEDRECTD90*
21,1,0.10236,0.08268,0,0,0.0*
21,1,0.00000,0.18504,0,0,0.0*
1,1,0.10236,0.00000,-0.04134*
1,1,0.10236,0.00000,-0.04134*
1,1,0.10236,0.00000,0.04134*
1,1,0.10236,0.00000,0.04134*
%
%ADD90ROUNDEDRECTD90*%
%ADD91C,0.05800*%
D19*
X262000Y261500D02*
D03*
Y269374D02*
D03*
X244000Y304874D02*
D03*
Y297000D02*
D03*
D20*
X243000Y262866D02*
D03*
Y271134D02*
D03*
X330500Y153268D02*
D03*
Y145000D02*
D03*
X514500Y230732D02*
D03*
Y239000D02*
D03*
X536500Y225366D02*
D03*
Y233634D02*
D03*
D21*
X291366Y289000D02*
D03*
X299634D02*
D03*
X269366D02*
D03*
X277634D02*
D03*
D22*
X321500Y319846D02*
D03*
Y312154D02*
D03*
X409000Y338500D02*
D03*
Y346193D02*
D03*
D25*
X451274Y477500D02*
D03*
X443000D02*
D03*
X353726Y404000D02*
D03*
X362000D02*
D03*
X353500Y377500D02*
D03*
X361774D02*
D03*
X455500Y383000D02*
D03*
X447226D02*
D03*
D26*
X524693Y420500D02*
D03*
X517000D02*
D03*
D29*
X420054Y406500D02*
D03*
X413946D02*
D03*
D30*
X427842Y434500D02*
D03*
X420158D02*
D03*
D34*
X351937Y275000D02*
D03*
X344063D02*
D03*
D38*
X585000Y402000D02*
D03*
Y395491D02*
D03*
X607500Y408755D02*
D03*
Y402245D02*
D03*
X581500Y431000D02*
D03*
Y424491D02*
D03*
D40*
X236000Y423768D02*
D03*
X246000D02*
D03*
X256000D02*
D03*
D41*
X246000Y465500D02*
D03*
D42*
X244500Y325965D02*
D03*
Y334035D02*
D03*
D43*
X315669Y294240D02*
D03*
Y286760D02*
D03*
X324331Y290500D02*
D03*
D44*
X481047Y478500D02*
D03*
X486953D02*
D03*
X453953Y340000D02*
D03*
X448047D02*
D03*
X454453Y363000D02*
D03*
X448547D02*
D03*
D45*
X382811Y403500D02*
D03*
X389189D02*
D03*
X446689Y446000D02*
D03*
X440311D02*
D03*
X389189Y378000D02*
D03*
X382811D02*
D03*
X412189Y384500D02*
D03*
X405811D02*
D03*
D46*
X445000Y408705D02*
D03*
Y424295D02*
D03*
D47*
X354500Y356677D02*
D03*
Y341323D02*
D03*
D48*
X350205Y213000D02*
D03*
X365795D02*
D03*
X314205Y214000D02*
D03*
X329795D02*
D03*
X313705Y187500D02*
D03*
X329295D02*
D03*
X314705Y237000D02*
D03*
X330295D02*
D03*
D49*
X534512Y201500D02*
D03*
Y196500D02*
D03*
Y191500D02*
D03*
Y186500D02*
D03*
Y181500D02*
D03*
X518488D02*
D03*
Y186500D02*
D03*
Y191500D02*
D03*
Y196500D02*
D03*
Y201500D02*
D03*
X585988Y274000D02*
D03*
Y279000D02*
D03*
Y284000D02*
D03*
Y289000D02*
D03*
Y294000D02*
D03*
X602012D02*
D03*
Y289000D02*
D03*
Y284000D02*
D03*
Y279000D02*
D03*
Y274000D02*
D03*
D50*
X525504Y287500D02*
D03*
X537000Y297500D02*
D03*
X525504Y307500D02*
D03*
X537000Y317500D02*
D03*
X525504Y327500D02*
D03*
D51*
X581000Y470000D02*
D03*
Y482598D02*
D03*
D52*
X595988Y455500D02*
D03*
X607012D02*
D03*
D53*
X607000Y435689D02*
D03*
Y429311D02*
D03*
X581500Y449000D02*
D03*
Y455378D02*
D03*
X604500Y481689D02*
D03*
Y475311D02*
D03*
D54*
X212500Y273000D02*
D03*
X217500Y266500D02*
D03*
X222500Y273000D02*
D03*
X296500Y262500D02*
D03*
X301500Y269000D02*
D03*
X306500Y262500D02*
D03*
X286500Y312563D02*
D03*
X281500Y319063D02*
D03*
X276500Y312563D02*
D03*
X239000Y204500D02*
D03*
D55*
X298500Y466500D02*
D03*
X363000D02*
D03*
D56*
X323500D02*
D03*
X136500Y404500D02*
D03*
X136000Y190500D02*
D03*
X388000Y466500D02*
D03*
D57*
X628000Y225000D02*
D03*
Y215000D02*
D03*
Y205000D02*
D03*
Y235000D02*
D03*
Y245000D02*
D03*
X688000Y225000D02*
D03*
Y235000D02*
D03*
Y245000D02*
D03*
Y215000D02*
D03*
Y205000D02*
D03*
Y255000D02*
D03*
D58*
Y195000D02*
D03*
D59*
X136500Y429500D02*
D03*
X136000Y215500D02*
D03*
D60*
X182500Y442500D02*
D03*
X183000Y334000D02*
D03*
D61*
X182500Y422500D02*
D03*
Y402500D02*
D03*
Y382500D02*
D03*
X183000Y314000D02*
D03*
Y294000D02*
D03*
Y274000D02*
D03*
D62*
X144764Y275000D02*
D03*
Y335079D02*
D03*
Y354921D02*
D03*
Y374764D02*
D03*
X115236D02*
D03*
Y354921D02*
D03*
Y335079D02*
D03*
Y275000D02*
D03*
D63*
X109488Y248000D02*
D03*
D64*
X165000D02*
D03*
D65*
X271343Y369000D02*
D03*
D66*
X261500D02*
D03*
X478500Y421343D02*
D03*
X354000Y299500D02*
D03*
D67*
X223500Y369500D02*
D03*
D68*
X237280D02*
D03*
D69*
X199630Y204500D02*
D03*
D70*
X218500Y334402D02*
D03*
D71*
Y297000D02*
D03*
D72*
X319500Y353500D02*
D03*
D73*
X309500D02*
D03*
X299500D02*
D03*
D74*
X324500Y392000D02*
D03*
Y402000D02*
D03*
X294500D02*
D03*
Y392000D02*
D03*
D75*
X507500Y474000D02*
D03*
D76*
Y464000D02*
D03*
Y454000D02*
D03*
Y444000D02*
D03*
X538248D02*
D03*
Y454000D02*
D03*
Y464000D02*
D03*
Y474000D02*
D03*
D77*
X478500Y411500D02*
D03*
X354000Y309343D02*
D03*
D78*
X401000Y163000D02*
D03*
X313000D02*
D03*
X332500Y128000D02*
D03*
X526500Y161500D02*
D03*
D79*
X391000Y163000D02*
D03*
X381000D02*
D03*
X303000D02*
D03*
X293000D02*
D03*
X539500Y355000D02*
D03*
X389500Y264000D02*
D03*
X379500Y254000D02*
D03*
Y244000D02*
D03*
X389500Y254000D02*
D03*
Y244000D02*
D03*
X342500Y128000D02*
D03*
X352500D02*
D03*
X362500D02*
D03*
X516500Y161500D02*
D03*
X506500D02*
D03*
D80*
X486748Y131500D02*
D03*
D81*
Y141500D02*
D03*
Y151500D02*
D03*
Y161500D02*
D03*
Y171500D02*
D03*
Y181500D02*
D03*
Y191500D02*
D03*
Y201500D02*
D03*
Y211500D02*
D03*
Y221500D02*
D03*
Y231500D02*
D03*
Y241500D02*
D03*
Y251500D02*
D03*
Y261500D02*
D03*
Y271500D02*
D03*
Y281500D02*
D03*
Y291500D02*
D03*
Y301500D02*
D03*
Y311500D02*
D03*
Y321500D02*
D03*
X426000D02*
D03*
Y311500D02*
D03*
Y301500D02*
D03*
Y291500D02*
D03*
Y281500D02*
D03*
Y271500D02*
D03*
Y261500D02*
D03*
Y251500D02*
D03*
Y241500D02*
D03*
Y231500D02*
D03*
Y221500D02*
D03*
Y211500D02*
D03*
Y201500D02*
D03*
Y191500D02*
D03*
Y181500D02*
D03*
Y171500D02*
D03*
Y161500D02*
D03*
Y151500D02*
D03*
Y141500D02*
D03*
Y131500D02*
D03*
D82*
X539500Y365000D02*
D03*
X379500Y264000D02*
D03*
D83*
X294000Y190937D02*
D03*
D84*
Y237000D02*
D03*
D85*
X611618Y138500D02*
D03*
D86*
Y148500D02*
D03*
Y158500D02*
D03*
Y168500D02*
D03*
Y178500D02*
D03*
Y188500D02*
D03*
Y198500D02*
D03*
Y208500D02*
D03*
Y218500D02*
D03*
Y228500D02*
D03*
X580988D02*
D03*
Y218500D02*
D03*
Y208500D02*
D03*
Y198500D02*
D03*
Y188500D02*
D03*
Y178500D02*
D03*
Y168500D02*
D03*
Y158500D02*
D03*
Y148500D02*
D03*
Y138500D02*
D03*
D87*
X634815Y377331D02*
D03*
X654500D02*
D03*
D88*
X674185D02*
D03*
D89*
X686783Y365126D02*
D03*
D90*
X622217D02*
D03*
D91*
X536400Y173100D02*
D03*
X356500Y369000D02*
D03*
X365795Y286500D02*
D03*
X464500Y226300D02*
D03*
X399900Y381500D02*
D03*
X603600Y398000D02*
D03*
X571200Y385973D02*
D03*
X619500Y380000D02*
D03*
X449453Y373000D02*
D03*
X366600Y198800D02*
D03*
X525500Y260600D02*
D03*
X523100Y317500D02*
D03*
X499800Y294552D02*
D03*
X452200Y207200D02*
D03*
X510100Y191500D02*
D03*
X464500Y141500D02*
D03*
X509400Y185300D02*
D03*
X315900Y304400D02*
D03*
X535000Y142900D02*
D03*
X358300Y286500D02*
D03*
X329400Y163000D02*
D03*
X507500Y201500D02*
D03*
X460000Y375100D02*
D03*
X615900Y435616D02*
D03*
X362000Y452700D02*
D03*
X514300Y210800D02*
D03*
X252400Y269374D02*
D03*
X525600Y300352D02*
D03*
X537000Y251500D02*
D03*
M02*
