M48
;Layer_Color=9474304
;FILE_FORMAT=2:5
INCH,LZ
;TYPE=PLATED
T1F00S00C0.02756
T2F00S00C0.02800
T3F00S00C0.02953
T4F00S00C0.02968
T5F00S00C0.02984
T6F00S00C0.03087
T7F00S00C0.03110
T8F00S00C0.03150
T9F00S00C0.03346
T10F00S00C0.03937
T11F00S00C0.03976
T12F00S00C0.04016
T13F00S00C0.04331
T14F00S00C0.04724
T15F00S00C0.05000
T16F00S00C0.05039
T17F00S00C0.05118
T18F00S00C0.05512
T19F00S00C0.05866
%
T01
X0354Y02995
Y0309343
X0271343Y0369
X02615
X04785Y04115
Y0421343
T02
X04645Y01415
X0535Y01429
X05364Y01731
X05094Y01853
X05101Y01915
X05075Y02015
X05143Y02108
X05255Y02606
X0537Y02515
X05256Y0300352
X04998Y0294552
X04645Y02263
X04522Y02072
X03666Y01988
X03294Y0163
X03583Y02865
X0365795
X03159Y03044
X02524Y0269374
X03565Y0369
X03999Y03815
X0449453Y0373
X046Y03751
X0362Y04527
X06159Y0435616
X06036Y0398
X06195Y038
X05712Y0385973
X05231Y03175
T03
X0294Y0190937
Y0237
T04
X0628Y0205
Y0215
Y0225
Y0235
Y0245
X0688
Y0235
Y0225
Y0215
Y0205
Y0195
Y0255
T05
X05075Y0444
Y0454
Y0464
X0538248
Y0454
Y0444
Y0474
X05075
T06
X0426Y01315
Y01415
Y01515
X0486748
Y01415
Y01315
Y01615
Y01715
Y01815
Y01915
Y02015
Y02115
Y02215
Y02315
Y02415
Y02515
Y02615
Y02715
Y02815
Y02915
Y03015
Y03115
X0426
Y03015
Y02915
Y02815
Y02715
Y02615
Y02515
Y02415
Y02315
Y02215
Y02115
Y02015
Y01915
Y01815
Y01715
Y01615
Y03215
X0486748
T07
X0580988Y01385
Y01485
X0611618
Y01385
Y01585
Y01685
Y01785
Y01885
Y01985
Y02085
Y02185
Y02285
X0580988
Y02185
Y02085
Y01985
Y01885
Y01785
Y01685
Y01585
T08
X02185Y0297
Y0334402
T09
X02235Y03695
X023728
T10
X019963Y02045
X0239
T11
X02175Y02665
X02125Y0273
X02225
X03015Y0269
X02965Y02625
X03065
X02865Y0312563
X02765
X02815Y0319063
T12
X03325Y0128
X03425
X03525
X03625
X05065Y01615
X05165
X05265
X0401Y0163
X0391
X0381
X0313
X03795Y0244
Y0254
Y0264
X03895
Y0254
Y0244
X0303Y0163
X0293
X05395Y0355
Y0365
T13
X0165Y0248
X0109488
T14
X0634815Y0377331
X06545
X0674185
T15
X02945Y0392
Y0402
X03245
Y0392
T16
X02995Y03535
X03095
X03195
T17
X0136Y01905
Y02155
X01365Y04045
Y04295
X02985Y04665
X03235
X0363
X0388
T18
X0115236Y0275
X0144764
Y0335079
Y0354921
Y0374764
X0115236
Y0354921
Y0335079
T19
X0183Y0274
Y0294
Y0314
Y0334
X01825Y03825
Y04025
Y04225
Y04425
M30
